<svg width="64" height="64" viewBox="0 0 64 64" fill="none" xmlns="http://www.w3.org/2000/svg">
<rect x="0.000244141" width="63.9997" height="64" rx="8" fill="white"/>
<path d="M46.6098 12H17.3903C14.4135 12 12.0002 14.4132 12.0002 17.3901V46.6097C12.0002 49.5866 14.4134 51.9998 17.3903 51.9998H31.8012L31.8258 37.706H28.1123C27.6297 37.706 27.238 37.3158 27.2361 36.8332L27.2183 32.2257C27.2164 31.7405 27.6093 31.3462 28.0946 31.3462H31.8013V26.8942C31.8013 21.7277 34.9567 18.9145 39.5655 18.9145H43.3474C43.8313 18.9145 44.2237 19.3068 44.2237 19.7907V23.6758C44.2237 24.1596 43.8316 24.5517 43.3479 24.552L41.027 24.5531C38.5206 24.5531 38.0353 25.7441 38.0353 27.492V31.3463H43.5428C44.0675 31.3463 44.4747 31.8045 44.4128 32.3256L43.8667 36.9331C43.8145 37.374 43.4406 37.7062 42.9967 37.7062H38.0598L38.0353 52H46.61C49.5868 52 51.9999 49.5868 51.9999 46.61V17.3901C51.9998 14.4132 49.5867 12 46.6098 12Z" fill="#2D3646"/>
</svg>
