<svg width="40" height="40" viewBox="0 0 40 40" fill="none" xmlns="http://www.w3.org/2000/svg">
<g clip-path="url(#clip0)">
<path d="M20 40C31.0457 40 40 31.0457 40 20C40 8.9543 31.0457 0 20 0C8.9543 0 0 8.9543 0 20C0 31.0457 8.9543 40 20 40Z" fill="#2F80ED"/>
<path d="M39.997 20.1834L23.9064 4.09277L5.82324 28.1892L8.00426 30.3933L8.92629 34.3575L13.482 38.9132C15.525 39.6171 17.7173 40.0002 19.9993 40.0002C30.9838 40.0002 39.8985 31.1446 39.997 20.1834Z" fill="#0768DD"/>
<path d="M7.48145 8.10012V31.2755C7.48145 33.4887 9.27559 35.2829 11.4888 35.2829H28.5127C30.7259 35.2829 32.52 33.4887 32.52 31.2755V12.7049L23.9079 4.09277H11.4888C9.27559 4.09277 7.48145 5.88691 7.48145 8.10012Z" fill="white"/>
<path d="M32.5202 12.7044V31.2753C32.5202 33.4884 30.7261 35.2824 28.513 35.2824H20.0005V4.09229H23.9081L32.5202 12.7044Z" fill="#EDEDED"/>
<path d="M32.5213 12.7049L23.9092 4.09277V12.7049H32.5213Z" fill="#DCDCDC"/>
<path d="M32.6096 28.7117H7.39226C5.95015 28.7117 4.78101 27.5426 4.78101 26.1004V19.3022C4.78101 17.8601 5.95007 16.6909 7.39226 16.6909H32.6096C34.0517 16.6909 35.2208 17.86 35.2208 19.3022V26.1004C35.2208 27.5426 34.0517 28.7117 32.6096 28.7117Z" fill="#DC2E66"/>
<path d="M35.2195 19.3026V26.1011C35.2195 27.5433 34.0508 28.712 32.6086 28.712H20V16.6909H32.6086C34.0508 16.6909 35.2195 17.8605 35.2195 19.3026Z" fill="white" fill-opacity="0.1"/>
<path d="M26.7361 21.0503V19.8784H23.751V22.073V23.2449V25.5243H24.9229V23.2449H26.5921V22.073H24.9229V21.0503H26.7361Z" fill="#EAE1DC"/>
<path d="M20.0374 19.9287H18.2116V19.9364H18.2095L18.2127 20.5264C18.2129 20.6628 18.2159 22.22 18.2159 22.6967C18.2159 23.3047 18.2215 24.8904 18.2215 24.8904L18.2235 25.4764L18.8096 25.4743C18.847 25.4741 19.7306 25.4707 20.0838 25.4645C21.4199 25.4411 22.3895 24.2791 22.3895 22.7014C22.3895 21.043 21.4442 19.9287 20.0374 19.9287ZM20.0634 24.2928C19.9111 24.2955 19.6502 24.2977 19.4053 24.2993L19.3878 21.1006H20.0374C21.1326 21.1006 21.2177 22.326 21.2177 22.7015C21.2177 23.7868 20.6379 24.2828 20.0634 24.2928Z" fill="white"/>
<path d="M22.3889 22.7015C22.3889 21.043 21.4436 19.9287 20.0368 19.9287H20.0029V21.1006H20.0368C21.132 21.1006 21.2171 22.326 21.2171 22.7015C21.2171 23.7869 20.6373 24.2828 20.0628 24.2928C20.0444 24.2932 20.0243 24.2935 20.0029 24.2938V25.4658C20.0318 25.4654 20.0589 25.465 20.0832 25.4646C21.4193 25.4412 22.3889 24.2792 22.3889 22.7015Z" fill="#EAE1DC"/>
<path d="M15.1079 19.8618H14.439H13.853H13.2671V25.5407H14.439V23.5799C14.6854 23.5786 14.9519 23.5774 15.1079 23.5774C16.1461 23.5774 16.9907 22.744 16.9907 21.7196C16.9907 20.6953 16.1462 19.8618 15.1079 19.8618ZM15.1079 22.4056C14.953 22.4056 14.6896 22.4067 14.4444 22.408C14.4432 22.1542 14.4421 21.8791 14.4421 21.7197C14.4421 21.5844 14.4414 21.2997 14.4407 21.0338H15.1079C15.4933 21.0338 15.8188 21.3479 15.8188 21.7197C15.8188 22.0915 15.4933 22.4056 15.1079 22.4056Z" fill="white"/>
</g>
<defs>
<clipPath id="clip0">
<rect width="40" height="40" fill="white"/>
</clipPath>
</defs>
</svg>
