<svg width="20" height="20" viewBox="0 0 20 20" fill="none" xmlns="http://www.w3.org/2000/svg">
<path fill-rule="evenodd" clip-rule="evenodd" d="M4.34315 4.34315C5.84344 2.84285 7.87827 2 10 2C12.1217 2 14.1566 2.84285 15.6569 4.34315C17.1571 5.84344 18 7.87827 18 10V11H16C15.2043 11 14.4413 11.3161 13.8787 11.8787C13.3161 12.4413 13 13.2043 13 14V17C13 17.7957 13.3161 18.5587 13.8787 19.1213C14.4413 19.6839 15.2043 20 16 20H17C17.7957 20 18.5587 19.6839 19.1213 19.1213C19.6839 18.5587 20 17.7957 20 17V10C20 7.34784 18.9464 4.8043 17.0711 2.92893C15.1957 1.05357 12.6522 0 10 0C7.34784 0 4.8043 1.05357 2.92893 2.92893C1.05357 4.8043 0 7.34784 0 10V17C0 17.7957 0.31607 18.5587 0.87868 19.1213C1.44129 19.6839 2.20435 20 3 20H4C4.79565 20 5.55871 19.6839 6.12132 19.1213C6.68393 18.5587 7 17.7957 7 17V14C7 13.2044 6.68393 12.4413 6.12132 11.8787C5.55871 11.3161 4.79565 11 4 11H2V10C2 7.87827 2.84285 5.84344 4.34315 4.34315Z" fill="white"/>
</svg>
