<svg width="64" height="64" viewBox="0 0 64 64" fill="none" xmlns="http://www.w3.org/2000/svg">
<rect width="64" height="64" rx="8" fill="white"/>
<path d="M44.2771 18H19.7229C14.9054 18 11 21.6793 11 26.218V37.782C11 42.3207 14.9054 46 19.7229 46H44.2771C49.0946 46 53 42.3207 53 37.782V26.218C53 21.6793 49.0946 18 44.2771 18ZM38.3779 32.5626L26.8931 37.7232C26.5871 37.8607 26.2336 37.6505 26.2336 37.3311V26.6875C26.2336 26.3635 26.5964 26.1536 26.903 26.3L38.3879 31.7831C38.7293 31.9461 38.7234 32.4074 38.3779 32.5626Z" fill="#2D3646"/>
</svg>
